<svg viewBox="240 163 1095 549" width="1095" height="549" xmlns="http://www.w3.org/2000/svg" version="1.1">
 <g>
  <title>Layer 1</title>
  <path d="m1088,322l146,0l18,4l16,8l11,8l11,11l7,10l7,12l5,14l3,16l0,22l-3,16l-5,14l-8,14l-12,13l-8,7l-13,8l4,8l14,24l10,18l13,23l15,26l1,4l-32,0l-45,-1l-7,-10l-9,-16l-21,-35l-17,-28l-2,-5l-25,0l0,94l-74,0l0,-279zm74,60l0,68l49,0l13,-4l8,-6l6,-7l3,-7l1,-5l0,-11l-3,-10l-6,-8l-7,-6l-7,-3l-6,-1l-51,0z" fill="#D7F000" id="svg_1"/>
  <path d="m492,321l71,0l0,107l99,0l1,-107l71,0l0,280l-71,0l0,-109l-100,0l0,109l-71,0l0,-280z" fill="#c8ff00" id="svg_2"/>
  <path d="m904,317l25,0l20,3l17,5l17,7l16,10l12,9l12,11l9,11l9,13l9,17l7,19l4,17l2,18l0,15l-2,18l-4,17l-6,16l-10,18l-10,13l-9,10l-12,11l-15,10l-15,8l-19,7l-21,5l-9,1l-26,0l-20,-3l-18,-5l-19,-8l-14,-8l-11,-8l-10,-9l-9,-9l-10,-13l-9,-15l-7,-15l-6,-21l-2,-13l0,-32l5,-25l6,-17l8,-16l10,-15l9,-11l12,-12l15,-11l18,-10l15,-6l15,-4l21,-3zm42,51l-10,4l-8,9l-4,9l-2,11l0,12l3,13l5,8l6,6l6,2l9,0l8,-4l7,-7l6,-12l2,-9l0,-15l-4,-11l-6,-9l-9,-6l-9,-1zm-68,1l-7,4l-7,8l-4,9l-1,5l0,15l3,12l6,10l7,7l7,3l8,0l10,-5l6,-8l4,-12l1,-5l0,-13l-4,-13l-5,-8l-8,-7l-5,-2l-11,0zm-48,53l-8,5l-4,5l-4,10l0,13l4,12l7,9l7,6l5,2l13,0l7,-4l6,-10l1,-5l0,-15l-4,-11l-6,-9l-8,-6l-5,-2l-11,0zm161,0l-9,4l-7,8l-4,8l-2,9l0,15l3,9l6,7l4,2l14,0l10,-5l8,-9l5,-12l0,-16l-4,-10l-5,-6l-8,-4l-11,0zm-81,26l-11,3l-8,4l-7,6l-7,11l-6,10l-17,16l-5,8l-2,6l0,10l4,10l8,8l10,5l21,5l15,7l8,2l9,0l10,-3l13,-6l19,-4l11,-6l8,-9l3,-9l0,-9l-4,-11l-9,-10l-8,-7l-7,-8l-7,-12l-6,-7l-12,-7l-11,-3l-12,0z" fill="#FEFEFE" id="svg_3"/>
  <path d="m266,198l234,0l6,3l5,6l1,3l0,79l-5,8l-8,4l-66,9l-3,9l-5,16l-4,3l-21,6l-12,4l-10,-1l-27,-8l-8,-3l-3,-4l-4,-19l-1,-2l-68,-10l-6,-3l-5,-5l-1,-3l0,-82l3,-5l5,-4l3,-1z" fill="#c8ff00" id="svg_4"/>
  <path d="m343,554l83,0l1,1l2,18l4,16l-3,3l-29,12l-11,5l-9,0l-35,-13l-13,-5l-1,-3l6,-16l1,-16l4,-2zm40,12l-26,10l-3,2l0,3l27,10l8,-1l16,-6l10,-4l2,-1l0,-2l-30,-11l-4,0z" fill="#c8ff00" id="svg_5"/>
  <path d="m1219,655l6,0l6,4l4,5l7,1l14,0l12,-1l5,-5l4,-2l7,0l5,3l2,4l0,6l-4,5l-2,0l0,2l4,2l2,3l0,8l-4,5l-2,1l-9,0l-5,-4l-2,-3l-3,-1l-29,0l-3,1l-2,4l-4,3l-9,0l-6,-4l-2,-4l1,-7l5,-5l-5,-6l-1,-7l3,-5l5,-3z" fill="#ff3ea5" id="svg_6"/>
  <path d="m374,655l9,1l5,5l1,7l-4,7l-2,0l0,2l4,2l2,3l0,8l-5,5l-2,1l-8,0l-4,-2l-4,-5l-2,-1l-30,0l-3,1l-2,4l-4,3l-6,1l-7,-3l-3,-4l0,-7l6,-7l-5,-5l-1,-6l4,-6l4,-2l7,1l7,6l3,1l31,0l2,-4l5,-5l2,-1z" fill="#ff3ea5" id="svg_7"/>
  <path d="m382,486l6,1l25,14l7,4l0,25l-6,-2l-23,-14l-5,-3l-6,2l-26,15l-4,2l-3,0l0,-24l17,-10l18,-10z" fill="#c8ff00" id="svg_8"/>
  <path d="m383,389l5,1l21,12l10,6l1,1l0,25l-10,-5l-24,-15l-5,1l-16,10l-16,9l-2,0l0,-24l17,-10l19,-11z" fill="#c8ff00" id="svg_9"/>
  <path d="m382,454l6,1l22,12l10,6l0,25l-5,-2l-17,-10l-13,-8l-10,5l-17,10l-9,5l-2,0l0,-24l17,-10l18,-10z" fill="#c8ff00" id="svg_10"/>
  <path d="m384,357l16,8l20,12l0,24l-5,-2l-22,-13l-9,-5l-16,10l-19,11l-2,0l-1,-2l0,-21l9,-6l25,-14l4,-2z" fill="#c8ff00" id="svg_11"/>
  <path d="m382,422l6,1l27,15l5,3l0,25l-10,-5l-21,-13l-3,-2l-4,1l-26,15l-7,4l-2,0l0,-24l17,-10l18,-10z" fill="#c8ff00" id="svg_12"/>
  <path d="m916,196l12,0l11,17l9,15l2,4l0,-36l11,0l0,52l-12,0l-11,-17l-10,-17l-1,-2l0,36l-11,0l0,-52z" fill="#FEFEFE" id="svg_13"/>
  <path d="m782,195l11,0l8,3l5,4l5,9l1,4l0,14l-4,10l-8,7l-4,2l-11,1l-10,-3l-6,-5l-5,-10l-1,-12l2,-9l4,-7l7,-6l6,-2zm4,9l-7,3l-4,6l-1,4l0,10l3,7l6,5l9,0l6,-4l3,-6l0,-14l-3,-6l-5,-4l-7,-1z" fill="#FEFEFE" id="svg_14"/>
  <path d="m1063,196l26,0l10,5l4,5l3,7l1,12l-2,9l-4,6l-6,5l-8,3l-24,0l0,-52zm10,9l0,33l1,1l11,0l6,-3l4,-5l1,-3l0,-12l-4,-8l-6,-3l-13,0z" fill="#FEFEFE" id="svg_15"/>
  <path d="m383,518l5,1l24,14l8,5l0,9l-11,1l-10,-1l-12,-5l-7,1l-9,4l-6,1l-14,0l-4,-1l0,-9l22,-12l14,-8z" fill="#c8ff00" id="svg_16"/>
  <path d="m992,196l15,0l10,28l8,24l-12,0l-4,-11l-19,-1l-2,9l-1,3l-12,0l3,-11l14,-41zm7,9l-6,22l1,1l12,0l-2,-9l-4,-14l-1,0z" fill="#FEFEFE" id="svg_17"/>
  <path d="m633,196l15,0l10,28l8,24l-12,0l-4,-11l-19,-1l-2,9l-1,3l-12,0l3,-11l14,-41zm7,9l-6,22l1,1l12,0l-2,-9l-4,-14l-1,0z" fill="#FEFEFE" id="svg_18"/>
  <path d="m541,656l13,1l8,15l0,3l2,0l2,-6l6,-12l13,0l0,36l-10,0l-1,-20l-8,17l-6,0l-8,-16l-1,19l-11,0l0,-36l1,-1z" fill="#ff3ea5" id="svg_19"/>
  <path d="m1035,657l14,0l9,17l8,-16l1,-1l12,0l0,36l-10,0l-1,-19l-8,16l-5,0l-5,-8l-4,-9l-1,20l-10,1l0,-37z" fill="#ff3ea5" id="svg_20"/>
  <path d="m845,195l11,0l8,3l5,4l4,8l0,3l-11,0l-4,-6l-5,-2l-8,1l-5,5l-2,6l0,10l3,7l5,4l9,0l5,-3l2,-5l11,0l-1,6l-4,6l-5,4l-4,2l-11,1l-10,-3l-7,-6l-4,-9l-1,-12l2,-10l6,-8l5,-4l6,-2z" fill="#FEFEFE" id="svg_21"/>
  <path d="m721,195l11,0l8,3l5,4l4,8l0,3l-11,0l-4,-6l-5,-2l-8,1l-5,5l-2,6l0,10l3,7l5,4l9,0l5,-3l2,-5l11,0l-1,6l-4,6l-5,4l-4,2l-11,1l-10,-3l-7,-6l-4,-9l-1,-12l2,-10l6,-8l5,-4l6,-2z" fill="#FEFEFE" id="svg_22"/>
  <path d="m1122,196l35,0l0,8l-24,1l-1,12l23,0l0,9l-23,0l0,13l25,0l0,9l-35,0l0,-52z" fill="#FEFEFE" id="svg_23"/>
  <path d="m910,657l11,0l11,14l4,5l1,-19l11,0l0,36l-12,0l-14,-18l0,-2l-2,0l1,19l0,1l-11,0l0,-36z" fill="#ff3ea5" id="svg_24"/>
  <path d="m641,657l11,0l10,12l6,8l0,-20l11,0l0,36l-12,0l-12,-16l-3,-3l0,19l-11,0l0,-36z" fill="#ff3ea5" id="svg_25"/>
  <path d="m871,656l12,0l8,3l6,7l2,5l0,9l-3,6l-7,6l-5,2l-13,0l-8,-4l-5,-5l-2,-6l0,-8l4,-8l6,-5l5,-2zm2,9l-5,4l-1,2l0,8l4,5l2,1l9,0l5,-4l1,-9l-4,-6l-2,-1l-9,0z" fill="#ff3ea5" id="svg_26"/>
  <path d="m1106,656l12,0l8,4l6,7l1,3l0,9l-3,7l-5,5l-7,3l-13,0l-8,-4l-5,-6l-1,-3l0,-11l3,-6l7,-6l5,-2zm2,9l-4,2l-3,6l1,7l4,4l2,1l8,0l5,-4l1,-2l0,-8l-4,-5l-2,-1l-8,0z" fill="#ff3ea5" id="svg_27"/>
  <path d="m748,656l11,0l8,3l7,8l1,3l0,10l-4,8l-8,5l-3,1l-12,0l-7,-3l-5,-4l-3,-6l0,-12l4,-6l6,-5l5,-2zm2,9l-5,4l-2,7l3,7l4,2l8,0l6,-5l0,-9l-4,-5l-2,-1l-8,0z" fill="#ff3ea5" id="svg_28"/>
  <path d="m344,178l79,0l4,3l0,8l-86,0l-1,-1l0,-6l4,-4z" fill="#c8ff00" id="svg_29"/>
  <path d="m1144,657l25,0l5,3l3,5l0,8l-3,5l-3,2l2,4l6,9l-13,0l-8,-11l-4,-1l0,12l-11,0l1,-36zm10,8l0,9l10,0l2,-2l0,-5l-2,-2l-10,0z" fill="#ff3ea5" id="svg_30"/>
  <path d="m597,657l32,0l0,8l-21,0l0,6l19,0l0,8l-19,0l0,6l21,0l0,8l-32,0l0,-36z" fill="#ff3ea5" id="svg_31"/>
  <path d="m436,657l14,0l11,25l4,11l-12,0l-2,-5l-17,-1l-1,6l-12,0l5,-13l10,-23zm6,9l-5,14l12,0l-5,-14l-2,0z" fill="#ff3ea5" id="svg_32"/>
  <path d="m997,657l13,0l5,10l10,24l0,2l-12,0l-2,-5l-16,0l-2,5l-12,0l10,-23l6,-13zm6,9l-5,11l0,3l11,0l-3,-9l-2,-5l-1,0z" fill="#ff3ea5" id="svg_33"/>
  <path d="m826,656l10,0l7,3l6,5l-5,5l-3,1l-6,-4l-7,0l-5,3l-1,2l0,7l2,4l4,2l8,0l4,-3l5,1l4,2l-1,4l-7,5l-3,1l-12,0l-8,-3l-5,-5l-3,-8l1,-10l4,-6l5,-4l6,-2z" fill="#ff3ea5" id="svg_34"/>
  <path d="m571,196l10,0l0,43l23,0l0,9l-33,0l0,-52z" fill="#FEFEFE" id="svg_35"/>
  <path d="m690,657l37,0l0,9l-13,0l0,27l-11,0l0,-27l-13,0l0,-9z" fill="#ff3ea5" id="svg_36"/>
  <path d="m475,657l10,0l0,27l20,0l0,9l-30,0l0,-36z" fill="#ff3ea5" id="svg_37"/>
  <path d="m888,196l10,0l0,52l-10,0l0,-52z" fill="#FEFEFE" id="svg_38"/>
  <path d="m347,345l8,1l21,7l-3,3l-24,14l-2,0l-1,-2l0,-16l1,-7z" fill="#c8ff00" id="svg_39"/>
  <path d="m515,657l11,0l0,36l-11,0l0,-36z" fill="#ff3ea5" id="svg_40"/>
  <path d="m417,345l3,1l0,23l-5,-2l-18,-10l-5,-4l8,-3l17,-5z" fill="#c8ff00" id="svg_41"/>
  <path d="m382,573l7,1l10,4l-1,2l-12,5l-6,-1l-10,-5l2,-2l10,-4z" fill="#c8ff00" id="svg_42"/>
 </g>

</svg>