<svg viewBox="253 73 287 461" width="287" height="461" xmlns="http://www.w3.org/2000/svg" version="1.1">
 <g id="Layer_1">
  <title>Layer 1</title>
  <path d="m278.81229,107.69195l234,0l6,3l5,6l1,3l0,79l-5,8l-8,4l-66,9l-3,9l-5,16l-4,3l-21,6l-12,4l-10,-1l-27,-8l-8,-3l-3,-4l-4,-19l-1,-2l-68,-10l-6,-3l-5,-5l-1,-3l0,-82l3,-5l5,-4l3,-1z" fill="#c8ff00" id="svg_4"/>
  <path d="m355.81229,463.69195l83,0l1,1l2,18l4,16l-3,3l-29,12l-11,5l-9,0l-35,-13l-13,-5l-1,-3l6,-16l1,-16l4,-2zm40,12l-26,10l-3,2l0,3l27,10l8,-1l16,-6l10,-4l2,-1l0,-2l-30,-11l-4,0z" fill="#c8ff00" id="svg_5"/>
  <path d="m394.81229,395.69195l6,1l25,14l7,4l0,25l-6,-2l-23,-14l-5,-3l-6,2l-26,15l-4,2l-3,0l0,-24l17,-10l18,-10z" fill="#c8ff00" id="svg_8"/>
  <path d="m395.81229,298.69195l5,1l21,12l10,6l1,1l0,25l-10,-5l-24,-15l-5,1l-16,10l-16,9l-2,0l0,-24l17,-10l19,-11z" fill="#c8ff00" id="svg_9"/>
  <path d="m394.81229,363.69195l6,1l22,12l10,6l0,25l-5,-2l-17,-10l-13,-8l-10,5l-17,10l-9,5l-2,0l0,-24l17,-10l18,-10z" fill="#c8ff00" id="svg_10"/>
  <path d="m396.81229,266.69195l16,8l20,12l0,24l-5,-2l-22,-13l-9,-5l-16,10l-19,11l-2,0l-1,-2l0,-21l9,-6l25,-14l4,-2z" fill="#c8ff00" id="svg_11"/>
  <path d="m394.81229,331.69195l6,1l27,15l5,3l0,25l-10,-5l-21,-13l-3,-2l-4,1l-26,15l-7,4l-2,0l0,-24l17,-10l18,-10z" fill="#c8ff00" id="svg_12"/>
  <path d="m395.81229,427.69195l5,1l24,14l8,5l0,9l-11,1l-10,-1l-12,-5l-7,1l-9,4l-6,1l-14,0l-4,-1l0,-9l22,-12l14,-8z" fill="#c8ff00" id="svg_16"/>
  <path d="m356.81229,87.69195l79,0l4,3l0,8l-86,0l-1,-1l0,-6l4,-4z" fill="#c8ff00" id="svg_29"/>
  <path d="m359.81229,254.69195l8,1l21,7l-3,3l-24,14l-2,0l-1,-2l0,-16l1,-7z" fill="#c8ff00" id="svg_39"/>
  <path d="m429.81229,254.69195l3,1l0,23l-5,-2l-18,-10l-5,-4l8,-3l17,-5z" fill="#c8ff00" id="svg_41"/>
  <path d="m394.81229,482.69195l7,1l10,4l-1,2l-12,5l-6,-1l-10,-5l2,-2l10,-4z" fill="#c8ff00" id="svg_42"/>
 </g>
</svg>